<svg width="601" height="600" viewBox="0 0 601 600" fill="none" xmlns="http://www.w3.org/2000/svg">
<circle cx="300.5" cy="300" r="300" fill="white"/>
<g clip-path="url(#clip0)">
<path d="M346.263 96.0439C351.409 106.996 340.504 110.098 328.011 115.969C315.519 121.839 306.17 128.254 301.024 117.302C295.877 106.35 291.702 84.6116 309.374 76.3071C327.656 67.7166 341.116 85.0917 346.263 96.0439Z" fill="#2F2E41"/>
<path d="M320.775 117.582C330.063 117.582 337.592 110.053 337.592 100.765C337.592 91.4771 330.063 83.9477 320.775 83.9477C311.487 83.9477 303.957 91.4771 303.957 100.765C303.957 110.053 311.487 117.582 320.775 117.582Z" fill="#FFB8B8"/>
<path d="M404.091 175.347C403.509 174.587 402.927 173.84 402.338 173.115C401.579 172.17 400.814 171.255 400.045 170.369C391.328 160.31 382.057 153.977 371.848 153.299H371.834L371.684 153.285L351.341 173.115L344.425 179.852L344.576 180.222L348.307 189.514H413.691C410.745 184.624 407.541 179.895 404.091 175.347V175.347Z" fill="#2F2E41"/>
<path d="M302.487 107.536L308.507 104.707L307.669 96.0223L311.694 103.209L314.571 101.857L314.082 96.7912L316.431 100.984L337.81 90.937C335.802 86.6637 332.179 83.3632 327.738 81.7614C323.296 80.1596 318.4 80.3879 314.127 82.3959L311.028 83.852C306.755 85.86 303.454 89.4834 301.853 93.9249C300.251 98.3665 300.479 103.262 302.487 107.536V107.536Z" fill="#2F2E41"/>
<path d="M441.819 412.799H90.669C87.6736 412.796 84.802 411.604 82.6839 409.486C80.5659 407.368 79.3745 404.497 79.3711 401.501V190.502C79.3736 188.308 80.2464 186.204 81.798 184.652C83.3497 183.101 85.4535 182.228 87.6479 182.225H444.697C446.93 182.228 449.07 183.116 450.648 184.694C452.227 186.273 453.115 188.413 453.117 190.646V401.501C453.114 404.497 451.922 407.368 449.804 409.486C447.686 411.604 444.815 412.796 441.819 412.799Z" fill="#EEF1F4"/>
<path d="M101.625 401.501H430.864C433.769 401.501 436.556 400.347 438.611 398.292C440.665 396.238 441.819 393.451 441.819 390.546V211.459C441.819 208.553 440.665 205.767 438.611 203.712C436.556 201.658 433.769 200.503 430.864 200.503H101.625C98.7189 200.503 95.9323 201.658 93.8778 203.712C91.8232 205.767 90.669 208.553 90.669 211.459V390.546C90.669 393.451 91.8232 396.238 93.8778 398.292C95.9323 400.347 98.7189 401.501 101.625 401.501Z" fill="white"/>
<path d="M452.96 189.856H79.2126V184.104C79.2169 181.099 80.4132 178.218 82.5389 176.094C84.6646 173.969 87.5463 172.775 90.5516 172.772H441.621C444.626 172.775 447.508 173.969 449.634 176.094C451.759 178.218 452.956 181.099 452.96 184.104V189.856Z" fill="#0070BB"/>
<path d="M99.8194 184.264C101.439 184.264 102.752 182.951 102.752 181.331C102.752 179.711 101.439 178.398 99.8194 178.398C98.1996 178.398 96.8865 179.711 96.8865 181.331C96.8865 182.951 98.1996 184.264 99.8194 184.264Z" fill="white"/>
<path d="M110.952 184.264C112.572 184.264 113.885 182.951 113.885 181.331C113.885 179.711 112.572 178.398 110.952 178.398C109.332 178.398 108.019 179.711 108.019 181.331C108.019 182.951 109.332 184.264 110.952 184.264Z" fill="white"/>
<path d="M122.085 184.264C123.705 184.264 125.018 182.951 125.018 181.331C125.018 179.711 123.705 178.398 122.085 178.398C120.465 178.398 119.152 179.711 119.152 181.331C119.152 182.951 120.465 184.264 122.085 184.264Z" fill="white"/>
<path d="M276.517 362.663H247.074C245.35 362.661 243.696 361.975 242.477 360.756C241.257 359.536 240.572 357.883 240.57 356.158V326.716C240.572 324.991 241.257 323.338 242.477 322.118C243.696 320.899 245.35 320.213 247.074 320.211H276.517C278.242 320.213 279.895 320.899 281.115 322.118C282.334 323.338 283.02 324.991 283.022 326.716V356.158C283.02 357.883 282.334 359.536 281.115 360.756C279.895 361.975 278.242 362.661 276.517 362.663V362.663ZM247.074 321.58C245.713 321.582 244.408 322.123 243.445 323.086C242.482 324.049 241.941 325.354 241.939 326.716V356.158C241.941 357.52 242.482 358.825 243.445 359.788C244.408 360.751 245.713 361.292 247.074 361.294H276.517C277.879 361.292 279.184 360.751 280.147 359.788C281.11 358.825 281.651 357.52 281.653 356.158V326.716C281.651 325.354 281.11 324.049 280.147 323.086C279.184 322.123 277.879 321.582 276.517 321.58H247.074Z" fill="#D4DADF"/>
<path d="M270.697 354.447H252.895C252.35 354.446 251.828 354.229 251.443 353.844C251.058 353.459 250.841 352.937 250.84 352.392V330.481C250.841 329.937 251.058 329.415 251.443 329.03C251.828 328.645 252.35 328.428 252.895 328.427H265.794C266.262 328.428 266.716 328.588 267.081 328.88L271.984 332.82C272.224 333.012 272.418 333.256 272.551 333.533C272.683 333.81 272.752 334.114 272.751 334.421V352.392C272.751 352.937 272.534 353.459 272.149 353.844C271.764 354.229 271.242 354.446 270.697 354.447V354.447ZM252.895 329.797C252.713 329.797 252.539 329.869 252.411 329.998C252.282 330.126 252.21 330.3 252.21 330.481V352.392C252.21 352.574 252.282 352.748 252.411 352.876C252.539 353.005 252.713 353.077 252.895 353.077H270.697C270.879 353.077 271.053 353.005 271.181 352.876C271.309 352.748 271.382 352.574 271.382 352.392V334.421C271.382 334.319 271.359 334.218 271.315 334.125C271.271 334.033 271.206 333.952 271.126 333.888L266.223 329.948C266.101 329.85 265.95 329.797 265.794 329.797H252.895Z" fill="#D4DADF"/>
<path d="M267.274 338.013H256.318C256.136 338.013 255.962 337.941 255.834 337.813C255.705 337.684 255.633 337.51 255.633 337.329C255.633 337.147 255.705 336.973 255.834 336.844C255.962 336.716 256.136 336.644 256.318 336.644H267.274C267.455 336.644 267.629 336.716 267.758 336.844C267.886 336.973 267.958 337.147 267.958 337.329C267.958 337.51 267.886 337.684 267.758 337.813C267.629 337.941 267.455 338.013 267.274 338.013Z" fill="#D4DADF"/>
<path d="M267.274 342.122H256.318C256.136 342.122 255.962 342.05 255.834 341.921C255.705 341.793 255.633 341.619 255.633 341.437C255.633 341.255 255.705 341.081 255.834 340.953C255.962 340.824 256.136 340.752 256.318 340.752H267.274C267.455 340.752 267.629 340.824 267.758 340.953C267.886 341.081 267.958 341.255 267.958 341.437C267.958 341.619 267.886 341.793 267.758 341.921C267.629 342.05 267.455 342.122 267.274 342.122Z" fill="#D4DADF"/>
<path d="M267.274 346.23H256.318C256.136 346.23 255.962 346.158 255.834 346.029C255.705 345.901 255.633 345.727 255.633 345.545C255.633 345.364 255.705 345.19 255.834 345.061C255.962 344.933 256.136 344.861 256.318 344.861H267.274C267.455 344.861 267.629 344.933 267.758 345.061C267.886 345.19 267.958 345.364 267.958 345.545C267.958 345.727 267.886 345.901 267.758 346.029C267.629 346.158 267.455 346.23 267.274 346.23Z" fill="#D4DADF"/>
<path d="M346.359 362.663H316.916C315.191 362.661 313.538 361.975 312.318 360.756C311.099 359.536 310.413 357.883 310.411 356.158V326.716C310.413 324.991 311.099 323.338 312.318 322.118C313.538 320.899 315.191 320.213 316.916 320.211H346.359C348.083 320.213 349.737 320.899 350.956 322.118C352.176 323.338 352.862 324.991 352.863 326.716V356.158C352.862 357.883 352.176 359.536 350.956 360.756C349.737 361.975 348.083 362.661 346.359 362.663V362.663ZM316.916 321.58C315.554 321.582 314.249 322.123 313.286 323.086C312.323 324.049 311.782 325.354 311.78 326.716V356.158C311.782 357.52 312.323 358.825 313.286 359.788C314.249 360.751 315.554 361.292 316.916 361.294H346.359C347.72 361.292 349.026 360.751 349.988 359.788C350.951 358.825 351.493 357.52 351.494 356.158V326.716C351.493 325.354 350.951 324.049 349.988 323.086C349.026 322.123 347.72 321.582 346.359 321.58H316.916Z" fill="#D4DADF"/>
<path d="M341.223 348.969H322.051C321.507 348.968 320.984 348.752 320.599 348.367C320.214 347.981 319.998 347.459 319.997 346.915V335.959C319.998 335.415 320.214 334.892 320.599 334.507C320.984 334.122 321.507 333.906 322.051 333.905H341.223C341.768 333.906 342.29 334.122 342.675 334.507C343.06 334.892 343.277 335.415 343.277 335.959V346.915C343.277 347.459 343.06 347.981 342.675 348.367C342.29 348.752 341.768 348.968 341.223 348.969V348.969ZM322.051 335.275C321.87 335.275 321.696 335.347 321.567 335.475C321.439 335.604 321.367 335.778 321.366 335.959V346.915C321.367 347.096 321.439 347.27 321.567 347.399C321.696 347.527 321.87 347.599 322.051 347.599H341.223C341.405 347.599 341.579 347.527 341.707 347.399C341.836 347.27 341.908 347.096 341.908 346.915V335.959C341.908 335.778 341.836 335.604 341.707 335.475C341.579 335.347 341.405 335.275 341.223 335.275H322.051Z" fill="#D4DADF"/>
<path d="M331.637 343.243C331.252 343.244 330.875 343.137 330.549 342.933L320.319 336.54C320.165 336.443 320.056 336.29 320.015 336.113C319.975 335.936 320.006 335.751 320.102 335.597C320.198 335.443 320.352 335.334 320.528 335.293C320.705 335.252 320.891 335.283 321.045 335.378L331.275 341.772C331.384 341.84 331.509 341.875 331.638 341.875C331.766 341.875 331.891 341.84 332 341.772L342.23 335.378C342.384 335.283 342.569 335.252 342.746 335.293C342.923 335.334 343.076 335.443 343.172 335.597C343.268 335.751 343.3 335.936 343.259 336.113C343.218 336.29 343.109 336.443 342.956 336.54L332.726 342.933C332.4 343.137 332.022 343.244 331.637 343.243V343.243Z" fill="#D4DADF"/>
<path d="M206.676 362.663H177.233C175.508 362.661 173.855 361.975 172.636 360.756C171.416 359.536 170.73 357.883 170.728 356.158V326.716C170.73 324.991 171.416 323.338 172.636 322.118C173.855 320.899 175.508 320.213 177.233 320.211H206.676C208.401 320.213 210.054 320.899 211.273 322.118C212.493 323.338 213.179 324.991 213.181 326.716V356.158C213.179 357.883 212.493 359.536 211.273 360.756C210.054 361.975 208.401 362.661 206.676 362.663V362.663ZM177.233 321.58C175.871 321.582 174.566 322.123 173.603 323.086C172.641 324.049 172.099 325.354 172.098 326.716V356.158C172.099 357.52 172.641 358.825 173.603 359.788C174.566 360.751 175.871 361.292 177.233 361.294H206.676C208.037 361.292 209.343 360.751 210.306 359.788C211.268 358.825 211.81 357.52 211.811 356.158V326.716C211.81 325.354 211.268 324.049 210.306 323.086C209.343 322.123 208.037 321.582 206.676 321.58H177.233Z" fill="#D4DADF"/>
<path d="M201.541 348.969H182.368C181.824 348.968 181.302 348.752 180.917 348.367C180.531 347.981 180.315 347.459 180.314 346.915V335.959C180.315 335.415 180.531 334.892 180.917 334.507C181.302 334.122 181.824 333.906 182.368 333.905H201.541C202.085 333.906 202.607 334.122 202.992 334.507C203.377 334.892 203.594 335.415 203.595 335.959V346.915C203.594 347.459 203.377 347.981 202.992 348.367C202.607 348.752 202.085 348.968 201.541 348.969V348.969ZM182.368 335.275C182.187 335.275 182.013 335.347 181.884 335.475C181.756 335.604 181.684 335.778 181.684 335.959V346.915C181.684 347.096 181.756 347.27 181.884 347.399C182.013 347.527 182.187 347.599 182.368 347.599H201.541C201.722 347.599 201.896 347.527 202.025 347.399C202.153 347.27 202.225 347.096 202.225 346.915V335.959C202.225 335.778 202.153 335.604 202.025 335.475C201.896 335.347 201.722 335.275 201.541 335.275H182.368Z" fill="#D4DADF"/>
<path d="M198.502 348.969H184.722C184.482 348.969 184.246 348.906 184.038 348.786C183.829 348.665 183.657 348.492 183.536 348.284C183.416 348.076 183.353 347.84 183.353 347.599C183.353 347.359 183.416 347.123 183.537 346.915L187.687 339.725C187.807 339.517 187.98 339.344 188.188 339.224C188.397 339.104 188.633 339.04 188.873 339.04C189.114 339.04 189.35 339.104 189.558 339.224C189.766 339.344 189.939 339.517 190.059 339.725L192.74 344.368L194.293 341.678C194.413 341.47 194.586 341.297 194.794 341.177C195.002 341.057 195.238 340.994 195.479 340.994C195.719 340.994 195.955 341.057 196.164 341.177C196.372 341.297 196.545 341.47 196.665 341.678L199.688 346.915C199.808 347.123 199.871 347.359 199.871 347.6C199.871 347.84 199.808 348.076 199.688 348.284C199.568 348.492 199.395 348.665 199.187 348.786C198.978 348.906 198.742 348.969 198.502 348.969H198.502ZM198.502 347.599L195.479 342.363L193.333 346.08C193.273 346.184 193.186 346.271 193.082 346.331C192.978 346.391 192.86 346.423 192.74 346.423V346.423C192.62 346.423 192.502 346.391 192.397 346.331C192.293 346.271 192.207 346.184 192.147 346.08L188.873 340.41L184.723 347.599H198.502Z" fill="#D4DADF"/>
<path d="M199.486 339.383C200.243 339.383 200.856 338.77 200.856 338.013C200.856 337.257 200.243 336.644 199.486 336.644C198.73 336.644 198.117 337.257 198.117 338.013C198.117 338.77 198.73 339.383 199.486 339.383Z" fill="#D4DADF"/>
<path d="M526.929 517.801L518.535 517.8L514.541 485.421L526.931 485.422L526.929 517.801Z" fill="#FFB8B8"/>
<path d="M529.07 525.938L502.003 525.937V525.594C502.003 524.211 502.275 522.841 502.805 521.563C503.334 520.285 504.11 519.123 505.088 518.145C506.067 517.167 507.228 516.391 508.506 515.861C509.785 515.332 511.155 515.059 512.538 515.059H512.539L529.07 515.06L529.07 525.938Z" fill="#2F2E41"/>
<path d="M561.165 517.801L552.771 517.8L548.777 485.421L561.167 485.422L561.165 517.801Z" fill="#FFB8B8"/>
<path d="M563.306 525.938L536.239 525.937V525.594C536.239 524.211 536.511 522.841 537.041 521.563C537.57 520.285 538.346 519.123 539.324 518.145C540.303 517.167 541.464 516.391 542.742 515.861C544.021 515.332 545.39 515.059 546.774 515.059H546.775L563.306 515.06L563.306 525.938Z" fill="#2F2E41"/>
<path d="M558.649 503.764L550.874 501.399C550.295 501.224 549.78 500.881 549.394 500.414C549.009 499.947 548.769 499.377 548.706 498.775L541.458 430.079C541.452 429.996 541.415 429.918 541.355 429.862C541.294 429.805 541.214 429.773 541.13 429.773C541.047 429.765 540.964 429.79 540.899 429.842C540.833 429.895 540.791 429.97 540.781 430.053L528.64 496.607C528.566 497.011 528.413 497.396 528.188 497.74C527.963 498.083 527.672 498.379 527.332 498.608C526.992 498.838 526.609 498.997 526.207 499.077C525.804 499.157 525.389 499.155 524.987 499.072L515.051 497.025C514.322 496.873 513.673 496.463 513.222 495.87C512.772 495.277 512.55 494.542 512.598 493.799L519.983 384.715L570.062 379.311L562.621 501.004C562.573 501.786 562.228 502.521 561.658 503.059C561.088 503.596 560.334 503.897 559.55 503.899C559.245 503.899 558.941 503.853 558.649 503.764V503.764Z" fill="#2F2E41"/>
<path d="M558.601 289.719C567.889 289.719 575.418 282.19 575.418 272.902C575.418 263.614 567.889 256.085 558.601 256.085C549.313 256.085 541.784 263.614 541.784 272.902C541.784 282.19 549.313 289.719 558.601 289.719Z" fill="#FFB8B8"/>
<path d="M519.906 385.355L530.765 316.985C531.342 313.35 532.687 309.88 534.71 306.805C536.733 303.73 539.388 301.121 542.497 299.152C545.607 297.183 549.1 295.898 552.745 295.384C556.39 294.87 560.102 295.138 563.635 296.17V296.17C569.812 297.957 575.101 301.982 578.469 307.46C581.838 312.938 583.043 319.474 581.849 325.793L570.489 386.85L519.906 385.355Z" fill="#0070BB"/>
<path d="M563.244 397.588C564.084 397.034 564.792 396.302 565.318 395.444C565.845 394.586 566.177 393.623 566.291 392.623C566.405 391.623 566.298 390.61 565.979 389.655C565.659 388.701 565.134 387.828 564.44 387.099L575.667 365.358L563.024 366.707L554.301 387.146C553.152 388.392 552.501 390.016 552.47 391.711C552.44 393.405 553.032 395.052 554.134 396.339C555.236 397.626 556.772 398.465 558.451 398.695C560.131 398.925 561.836 398.531 563.244 397.588V397.588Z" fill="#FFB8B8"/>
<path d="M565.648 383.264C565.027 383.176 564.447 382.901 563.986 382.476L559.691 378.507C559.227 378.076 558.906 377.513 558.773 376.894C558.639 376.275 558.699 375.63 558.943 375.046L567.528 354.697L566.31 314.491C566.485 313.198 566.913 311.953 567.57 310.826C568.227 309.699 569.099 308.713 570.137 307.923C571.175 307.133 572.359 306.556 573.62 306.224C574.881 305.892 576.196 305.812 577.488 305.988C578.78 306.165 580.025 306.594 581.151 307.251C582.278 307.909 583.263 308.782 584.052 309.821C584.841 310.86 585.417 312.044 585.748 313.306C586.079 314.567 586.158 315.882 585.98 317.174L588.062 342.448C588.695 350.119 586.521 357.759 581.943 363.947L568.555 382.045C568.297 382.393 567.969 382.683 567.592 382.896C567.215 383.108 566.798 383.239 566.367 383.28C566.128 383.303 565.886 383.298 565.648 383.264V383.264Z" fill="#0070BB"/>
<path d="M461.755 263.739C461.938 264.729 462.336 265.667 462.921 266.486C463.506 267.305 464.263 267.986 465.139 268.481C466.016 268.976 466.99 269.273 467.994 269.351C468.998 269.428 470.006 269.285 470.948 268.931L486.591 287.746L490.278 275.577L474.858 259.576C474.158 258.032 472.916 256.799 471.368 256.11C469.82 255.421 468.072 255.324 466.457 255.837C464.842 256.351 463.471 257.438 462.604 258.895C461.738 260.351 461.435 262.075 461.755 263.739V263.739Z" fill="#FFB8B8"/>
<path d="M474.009 271.538C474.331 271 474.811 270.574 475.382 270.315L480.712 267.907C481.289 267.648 481.933 267.572 482.555 267.691C483.177 267.809 483.748 268.115 484.19 268.568L499.581 284.407L537.081 298.962C538.203 299.627 539.183 300.507 539.965 301.551C540.747 302.595 541.316 303.783 541.638 305.047C541.961 306.311 542.031 307.626 541.845 308.917C541.659 310.208 541.22 311.45 540.554 312.571C539.888 313.693 539.007 314.672 537.962 315.453C536.917 316.234 535.728 316.801 534.464 317.122C533.2 317.443 531.884 317.512 530.594 317.324C529.303 317.137 528.061 316.697 526.941 316.029L502.855 308.092C495.544 305.684 489.357 300.703 485.444 294.075L473.997 274.69C473.777 274.317 473.638 273.902 473.589 273.472C473.54 273.042 473.582 272.607 473.713 272.194C473.785 271.964 473.884 271.744 474.009 271.538V271.538Z" fill="#0070BB"/>
<path opacity="0.1" d="M572.242 331.216L571.557 353.127L558.943 375.046L569.476 350.62L572.242 331.216Z" fill="black"/>
<path d="M556.674 276.062C555.618 276.2 554.548 275.949 553.663 275.357C552.777 274.765 552.137 273.871 551.86 272.843C551.594 271.659 551.01 270.57 550.172 269.692C549.333 268.815 548.272 268.182 547.101 267.862C544.016 267.157 540.246 268.61 537.985 266.272C537.501 265.739 537.151 265.098 536.963 264.402C536.776 263.707 536.756 262.976 536.906 262.272C537.323 260.001 538.947 258.285 540.716 256.912C544.437 254.038 548.939 252.355 553.634 252.084C556.063 252.014 558.495 252.135 560.906 252.446C563.43 252.606 565.927 253.062 568.344 253.806C571.099 254.845 573.546 256.562 575.461 258.797C577.376 261.033 578.697 263.715 579.301 266.596C579.854 269.486 579.769 272.462 579.053 275.316C578.336 278.17 577.006 280.833 575.154 283.119C572.937 285.88 570.078 288.056 566.827 289.459C566.053 289.824 565.165 289.869 564.358 289.584C562.333 288.779 562.664 286.27 563.587 284.597C564.575 282.807 566.096 281.073 565.301 278.895C564.903 277.884 564.138 277.061 563.16 276.59C561.147 275.563 558.895 275.806 556.731 276.056L556.674 276.062Z" fill="#2F2E41"/>
<path d="M456.135 285.559H247.98C244.985 285.556 242.113 284.365 239.995 282.247C237.877 280.129 236.686 277.257 236.682 274.262V229.755C236.686 226.76 237.877 223.888 239.995 221.77C242.113 219.652 244.985 218.46 247.98 218.457H456.135C459.13 218.46 462.002 219.652 464.12 221.77C466.238 223.888 467.429 226.76 467.433 229.755V274.262C467.429 277.257 466.238 280.129 464.12 282.247C462.002 284.365 459.13 285.556 456.135 285.559V285.559Z" fill="white"/>
<path d="M456.135 285.902H247.98C244.894 285.898 241.935 284.671 239.753 282.489C237.571 280.307 236.343 277.348 236.34 274.262V229.755C236.343 226.669 237.571 223.71 239.753 221.528C241.935 219.346 244.894 218.118 247.98 218.115H456.135C459.221 218.118 462.18 219.346 464.362 221.528C466.544 223.71 467.772 226.669 467.775 229.755V274.262C467.772 277.348 466.544 280.307 464.362 282.489C462.18 284.671 459.221 285.898 456.135 285.902ZM247.98 219.484C245.257 219.487 242.647 220.57 240.721 222.496C238.796 224.421 237.712 227.032 237.709 229.755V274.262C237.712 276.985 238.796 279.595 240.721 281.521C242.647 283.446 245.257 284.529 247.98 284.533H456.135C458.858 284.529 461.468 283.446 463.394 281.521C465.319 279.595 466.403 276.985 466.406 274.262V229.755C466.403 227.032 465.319 224.421 463.394 222.496C461.468 220.57 458.858 219.487 456.135 219.484H247.98Z" fill="#3F3D56"/>
<path d="M430.8 274.604H273.315C270.319 274.601 267.448 273.409 265.33 271.291C263.212 269.173 262.02 266.302 262.017 263.306V240.026C262.02 237.03 263.212 234.159 265.33 232.041C267.448 229.923 270.319 228.731 273.315 228.728H430.8C433.795 228.731 436.667 229.923 438.785 232.041C440.903 234.159 442.095 237.03 442.098 240.026V263.306C442.095 266.302 440.903 269.173 438.785 271.291C436.667 273.409 433.795 274.601 430.8 274.604V274.604Z" fill="#EEF1F4"/>
<path d="M307.205 262.056C314.667 262.056 320.716 256.007 320.716 248.545C320.716 241.083 314.667 235.034 307.205 235.034C299.743 235.034 293.694 241.083 293.694 248.545C293.694 256.007 299.743 262.056 307.205 262.056Z" fill="#FF6584"/>
<path d="M421.014 273.241L401.942 257.246L383.2 241.527C382.706 241.112 382.081 240.886 381.435 240.887C380.79 240.888 380.165 241.117 379.672 241.534L360.991 257.325L356.428 261.182L349.548 255.412L328.638 237.875C328.144 237.461 327.519 237.234 326.873 237.235C326.228 237.236 325.603 237.465 325.11 237.882L304.269 255.499L283.099 273.393C282.992 273.483 282.915 273.605 282.879 273.741C282.843 273.876 282.85 274.02 282.899 274.152C282.947 274.284 283.035 274.397 283.15 274.478C283.265 274.558 283.402 274.601 283.543 274.601L326.945 274.517L340.683 274.49L340.549 274.604L381.5 274.525L420.575 274.45C420.715 274.45 420.852 274.406 420.967 274.326C421.082 274.245 421.169 274.131 421.217 273.999C421.265 273.867 421.271 273.723 421.235 273.588C421.198 273.452 421.121 273.331 421.014 273.241Z" fill="#3F3D56"/>
<path d="M599.815 526.923H468.349C468.168 526.923 467.993 526.851 467.865 526.723C467.737 526.594 467.664 526.42 467.664 526.238C467.664 526.057 467.737 525.883 467.865 525.754C467.993 525.626 468.168 525.554 468.349 525.554H599.815C599.997 525.554 600.171 525.626 600.299 525.754C600.428 525.883 600.5 526.057 600.5 526.238C600.5 526.42 600.428 526.594 600.299 526.723C600.171 526.851 599.997 526.923 599.815 526.923Z" fill="#D4DADF"/>
<path d="M414.109 164.323C413.562 163.434 412.84 162.666 411.986 162.066C411.133 161.465 410.166 161.045 409.145 160.831C408.77 160.752 408.39 160.704 408.008 160.687L355.839 114.044C354.814 112.991 353.448 112.338 351.984 112.202C351.696 112.169 351.405 112.16 351.115 112.175C349.911 112.229 348.749 112.634 347.772 113.338C346.794 114.042 346.043 115.016 345.61 116.141C345.177 117.265 345.081 118.491 345.334 119.669C345.587 120.847 346.178 121.926 347.034 122.774L367.007 140.187L399.805 168.774C399.832 169.312 399.912 169.846 400.045 170.369C400.437 171.883 401.281 173.242 402.463 174.265C403.646 175.289 405.111 175.929 406.666 176.1C408.084 176.266 409.519 176.028 410.809 175.415C411.831 174.937 412.737 174.244 413.465 173.382C413.54 173.293 413.609 173.211 413.677 173.115C414.635 171.867 415.189 170.357 415.266 168.786C415.343 167.215 414.939 165.658 414.109 164.323H414.109Z" fill="#FFB8B8"/>
<path d="M324.876 209.275L324.39 189.514L323.979 173.115L323.698 161.639L323.144 139.269C323.034 138.071 322.578 136.931 321.831 135.989C321.085 135.046 320.08 134.341 318.939 133.96C317.798 133.578 316.571 133.537 315.408 133.842C314.244 134.146 313.195 134.783 312.387 135.674C312.197 135.878 312.025 136.098 311.873 136.332C311.03 137.539 310.651 139.01 310.805 140.474L312.024 173.115L312.634 189.514L313.414 210.432C313.189 210.739 312.985 211.062 312.805 211.397C312.318 212.321 312.024 213.333 311.94 214.374C311.856 215.414 311.985 216.461 312.319 217.45C312.666 218.488 313.23 219.44 313.973 220.243C314.715 221.047 315.619 221.684 316.626 222.113C317.632 222.542 318.718 222.753 319.812 222.732C320.906 222.71 321.983 222.458 322.973 221.99C324.121 221.447 325.119 220.629 325.877 219.609C326.635 218.588 327.129 217.397 327.318 216.14C327.506 214.883 327.381 213.6 326.956 212.402C326.53 211.205 325.816 210.131 324.876 209.275H324.876Z" fill="#FFB8B8"/>
<path d="M371.848 153.299L367.007 140.187L359.174 118.947C358.609 117.401 357.703 116.003 356.523 114.855C355.344 113.708 353.921 112.841 352.361 112.318C352.238 112.277 352.108 112.236 351.984 112.202C350.473 111.743 348.88 111.617 347.315 111.832C345.75 112.047 344.25 112.599 342.919 113.448L316.536 130.183C314.12 131.712 312.393 134.12 311.72 136.899C311.046 139.678 311.48 142.61 312.928 145.075C316.227 150.78 319.822 156.309 323.698 161.639C326.773 165.822 332.497 166.267 333.49 173.115H352.943L372.635 155.435L371.848 153.299Z" fill="#D4DADF"/>
<path d="M69.7694 313.552C78.532 313.552 85.6355 306.448 85.6355 297.686C85.6355 288.923 78.532 281.82 69.7694 281.82C61.0068 281.82 53.9033 288.923 53.9033 297.686C53.9033 306.448 61.0068 313.552 69.7694 313.552Z" fill="#A0616A"/>
<path d="M108.721 286.764C108.877 286.889 109.029 287.021 109.175 287.16C109.904 287.847 110.48 288.679 110.864 289.604C111.249 290.529 111.434 291.524 111.407 292.525C111.38 293.526 111.142 294.51 110.708 295.412C110.274 296.315 109.655 297.116 108.89 297.762C108.712 297.912 108.526 298.052 108.333 298.182L109.406 334.434C109.437 335.621 109.084 336.786 108.4 337.756C107.716 338.727 106.738 339.451 105.61 339.821L105.544 339.835L76.109 342.97C75.3087 343.055 74.4996 342.981 73.7282 342.751C72.9568 342.522 72.2385 342.142 71.6147 341.633C70.9909 341.125 70.4741 340.498 70.094 339.789C69.7139 339.079 69.4781 338.302 69.4003 337.501C69.3224 336.7 69.404 335.891 69.6403 335.122C69.8766 334.352 70.263 333.638 70.7771 333.018C71.2912 332.399 71.9229 331.888 72.6356 331.514C73.3484 331.141 74.1281 330.912 74.9298 330.841L95.9125 328.993L99.5413 297.598C99.3039 297.388 99.0816 297.162 98.876 296.921C97.7383 295.574 97.1416 293.853 97.2017 292.091C97.2619 290.329 97.9747 288.652 99.2017 287.387C100.429 286.121 102.082 285.356 103.841 285.241C105.6 285.126 107.339 285.669 108.721 286.764H108.721Z" fill="#A0616A"/>
<path d="M95.9006 518.502H103.821L107.588 487.954H95.8992L95.9006 518.502Z" fill="#A0616A"/>
<path d="M93.8808 515.916L109.477 515.916H109.478C110.783 515.916 112.076 516.173 113.282 516.672C114.488 517.172 115.583 517.904 116.506 518.827C117.429 519.75 118.161 520.845 118.661 522.051C119.16 523.257 119.417 524.55 119.417 525.855V526.178L93.8812 526.179L93.8808 515.916Z" fill="#2F2E41"/>
<path d="M17.1839 507.552L23.9886 511.603L42.8547 487.284L32.8112 481.305L17.1839 507.552Z" fill="#A0616A"/>
<path d="M16.7709 504.297L30.172 512.276L30.1725 512.276C31.2941 512.944 32.2731 513.826 33.0537 514.872C33.8343 515.918 34.4012 517.108 34.722 518.373C35.0428 519.638 35.1113 520.954 34.9235 522.246C34.7357 523.538 34.2953 524.78 33.6275 525.901L33.4623 526.179L11.5208 513.115L16.7709 504.297Z" fill="#2F2E41"/>
<path d="M105.689 507.713H96.821C96.1029 507.714 95.4099 507.449 94.876 506.968C94.342 506.488 94.0052 505.827 93.9304 505.113L84.9899 421.072C84.9674 420.861 84.8758 420.662 84.7294 420.508C84.583 420.354 84.3899 420.252 84.1799 420.218C83.9698 420.184 83.7545 420.221 83.5671 420.321C83.3798 420.422 83.2308 420.582 83.1431 420.776L67.0143 456.49L38.4591 503.052C38.0895 503.649 37.5173 504.093 36.8472 504.303C36.1771 504.512 35.454 504.473 34.8103 504.193L23.4027 499.174C23.0255 499.008 22.6879 498.764 22.4123 498.457C22.1367 498.151 21.9294 497.789 21.8041 497.397C21.6789 497.004 21.6385 496.589 21.6857 496.18C21.7329 495.77 21.8666 495.376 22.0779 495.022L48.328 451.068L56.3787 414.035C53.8466 397.975 64.7015 374.098 64.8115 373.858L64.8653 373.742L94.7653 362.055L94.9153 362.239C106.707 400.935 113.892 442.578 108.587 505.049C108.521 505.774 108.188 506.448 107.653 506.941C107.117 507.433 106.417 507.708 105.689 507.713V507.713Z" fill="#2F2E41"/>
<path d="M63.6607 377.655L63.5215 377.362C63.4549 377.222 56.8064 363.2 51.6813 348.213C50.6963 345.314 50.324 342.243 50.5878 339.194C50.8517 336.144 51.746 333.183 53.2141 330.497C54.7013 327.783 56.7359 325.408 59.189 323.521C61.6421 321.635 64.4603 320.279 67.4649 319.538V319.538C72.6811 318.288 78.1728 318.953 82.9396 321.413C87.7064 323.872 91.431 327.962 93.4348 332.938C97.5001 343.104 96.2045 353.955 94.9852 362.489L94.9609 362.659L94.8054 362.734L63.6607 377.655Z" fill="#3F3D56"/>
<path d="M89.0065 288.723H63.8131V277.741C69.3428 275.545 74.7538 273.676 78.0248 277.741C80.9373 277.741 83.7305 278.898 85.79 280.958C87.8495 283.017 89.0065 285.811 89.0065 288.723V288.723Z" fill="#2F2E41"/>
<path d="M62.4183 275.804C47.3571 275.804 43.1415 294.682 43.1415 305.332C43.1415 311.272 45.8277 313.396 50.0486 314.115L51.5393 306.165L55.0307 314.457C56.2164 314.463 57.462 314.44 58.7534 314.416L59.9372 311.979L62.5769 314.372C73.1496 314.388 81.6947 315.929 81.6947 305.332C81.6947 294.682 77.9976 275.804 62.4183 275.804Z" fill="#2F2E41"/>
<path d="M132.651 526.923H1.18472C1.00312 526.923 0.828955 526.851 0.700545 526.723C0.572136 526.594 0.499996 526.42 0.499996 526.238C0.499996 526.057 0.572136 525.883 0.700545 525.754C0.828955 525.626 1.00312 525.554 1.18472 525.554H132.651C132.832 525.554 133.007 525.626 133.135 525.754C133.263 525.883 133.336 526.057 133.336 526.238C133.336 526.42 133.263 526.594 133.135 526.723C133.007 526.851 132.832 526.923 132.651 526.923Z" fill="#D4DADF"/>
<path d="M135.123 301.65H105.68C103.955 301.649 102.302 300.963 101.082 299.743C99.863 298.524 99.177 296.87 99.175 295.146V265.703C99.177 263.978 99.863 262.325 101.082 261.105C102.302 259.886 103.955 259.2 105.68 259.198H135.123C136.847 259.2 138.501 259.886 139.72 261.105C140.94 262.325 141.626 263.978 141.628 265.703V295.146C141.626 296.87 140.94 298.524 139.72 299.743C138.501 300.963 136.847 301.649 135.123 301.65V301.65Z" fill="white"/>
<path d="M135.123 301.65H105.68C103.955 301.649 102.302 300.963 101.082 299.743C99.863 298.524 99.177 296.87 99.175 295.146V265.703C99.177 263.978 99.863 262.325 101.082 261.105C102.302 259.886 103.955 259.2 105.68 259.198H135.123C136.847 259.2 138.501 259.886 139.72 261.105C140.94 262.325 141.626 263.978 141.628 265.703V295.146C141.626 296.87 140.94 298.524 139.72 299.743C138.501 300.963 136.847 301.649 135.123 301.65V301.65ZM105.68 260.567C104.318 260.569 103.013 261.11 102.05 262.073C101.088 263.036 100.546 264.341 100.544 265.703V295.146C100.546 296.507 101.088 297.813 102.05 298.775C103.013 299.738 104.318 300.28 105.68 300.281H135.123C136.484 300.28 137.79 299.738 138.752 298.775C139.715 297.813 140.257 296.507 140.258 295.146V265.703C140.257 264.341 139.715 263.036 138.752 262.073C137.79 261.11 136.484 260.569 135.123 260.567H105.68Z" fill="#3F3D56"/>
<path d="M129.987 289.668H110.815C110.271 289.667 109.749 289.451 109.363 289.066C108.978 288.68 108.762 288.158 108.761 287.614V273.235C108.762 272.69 108.978 272.168 109.363 271.783C109.749 271.398 110.271 271.181 110.815 271.18H116.212C116.563 271.179 116.909 271.268 117.215 271.44C117.522 271.611 117.779 271.858 117.962 272.158L119.467 274.604H129.987C130.532 274.605 131.054 274.821 131.439 275.206C131.824 275.591 132.041 276.114 132.042 276.658V287.614C132.041 288.158 131.824 288.68 131.439 289.066C131.054 289.451 130.532 289.667 129.987 289.668V289.668Z" fill="#0070BB"/>
<path d="M129.364 296.932C129.46 297.108 129.548 297.288 129.629 297.473C130.035 298.389 130.242 299.38 130.237 300.381C130.233 301.383 130.017 302.372 129.604 303.284C129.191 304.196 128.589 305.01 127.839 305.674C127.089 306.337 126.208 306.835 125.252 307.134C125.03 307.202 124.804 307.259 124.575 307.305L111.498 341.133C111.065 342.239 110.288 343.175 109.281 343.804C108.274 344.433 107.091 344.721 105.908 344.624L105.842 344.612L77.4974 336.079C76.7267 335.847 76.0097 335.464 75.3876 334.954C74.7656 334.443 74.2509 333.814 73.8733 333.103C73.4957 332.393 73.2626 331.614 73.1875 330.813C73.1125 330.011 73.1969 329.203 73.436 328.435C73.675 327.666 74.064 326.953 74.5803 326.335C75.0967 325.718 75.7303 325.209 76.4444 324.838C77.1586 324.467 77.9392 324.241 78.7412 324.173C79.5431 324.105 80.3506 324.197 81.1169 324.443L101.173 330.882L116.699 303.355C116.562 303.07 116.445 302.775 116.349 302.472C115.823 300.79 115.941 298.972 116.681 297.372C117.42 295.771 118.727 294.503 120.349 293.812C121.971 293.122 123.792 293.059 125.458 293.635C127.124 294.212 128.516 295.387 129.364 296.932H129.364Z" fill="#A0616A"/>
</g>
<defs>
<clipPath id="clip0">
<rect width="600" height="452.923" fill="white" transform="translate(0.5 74)"/>
</clipPath>
</defs>
</svg>
