<svg width="37" height="37" viewBox="0 0 37 37" fill="none" xmlns="http://www.w3.org/2000/svg">
<path d="M32 6.5H5C4.20435 6.5 3.44129 6.81607 2.87868 7.37868C2.31607 7.94129 2 8.70435 2 9.5V29C2 29.7956 2.31607 30.5587 2.87868 31.1213C3.44129 31.6839 4.20435 32 5 32H32C32.7956 32 33.5587 31.6839 34.1213 31.1213C34.6839 30.5587 35 29.7956 35 29V9.5C35 8.70435 34.6839 7.94129 34.1213 7.37868C33.5587 6.81607 32.7956 6.5 32 6.5V6.5ZM5 29V9.5H17V29H5ZM32 29H20V9.5H32V29ZM21.5 14.75H30.5V17H21.5V14.75ZM21.5 18.5H30.5V20.75H21.5V18.5ZM21.5 22.25H30.5V24.5H21.5V22.25Z" fill="#0070BB"/>
</svg>
