<svg width="37" height="37" viewBox="0 0 37 37" fill="none" xmlns="http://www.w3.org/2000/svg">
<g clip-path="url(#clip0)">
<path d="M6.5 9.5H30.5V24.5H6.5V9.5ZM30.5 27.5C31.2956 27.5 32.0587 27.1839 32.6213 26.6213C33.1839 26.0587 33.5 25.2956 33.5 24.5V9.5C33.5 8.70435 33.1839 7.94129 32.6213 7.37868C32.0587 6.81607 31.2956 6.5 30.5 6.5H6.5C4.835 6.5 3.5 7.835 3.5 9.5V24.5C3.5 25.2956 3.81607 26.0587 4.37868 26.6213C4.94129 27.1839 5.70435 27.5 6.5 27.5H0.5V30.5H36.5V27.5H30.5Z" fill="#0070BB"/>
</g>
<defs>
<clipPath id="clip0">
<rect width="36" height="36" fill="white" transform="translate(0.5 0.5)"/>
</clipPath>
</defs>
</svg>
